<?xml version="1.0" encoding="UTF-8"?>
<svg id="_图层_2" data-name="图层 2" xmlns="http://www.w3.org/2000/svg" viewBox="0 0 70.64 78.13">
  <defs>
    <style>
      .cls-1 {
        fill: #403789;
      }

      .cls-1, .cls-2 {
        stroke-width: 0px;
      }

      .cls-2 {
        fill: #9087c0;
      }
    </style>
  </defs>
  <g id="_1_" data-name="1&amp;apos;">
    <g>
      <path class="cls-2" d="m46.34,0h8.66v78.12h-8.66V0Z"/>
      <path class="cls-2" d="m22.93,0h13.37v78.13h-13.37V0Z"/>
      <path class="cls-1" d="m26.67,78.13h0s-24.28,0-24.28,0V16.33h24.28v6.3c1.71-2.14,4.28-3.91,7.73-5.32,3.45-1.41,7.99-2.12,13.61-2.12,8.09,0,13.88,1.66,17.38,4.98,3.49,3.32,5.24,8.72,5.24,16.19v41.77h-24.28v-36.85c0-1.91-.15-3.46-.45-4.64s-.83-2.08-1.6-2.69c-.77-.61-1.76-1.26-3.07-1.26-2.14,0-7.74,2.43-9.04,10.53"/>
      <path class="cls-2" d="m0,0h17.28v78.13H0V0Z"/>
      <path class="cls-2" d="m65.04,0h5.59v78.13h-5.59V0Z"/>
    </g>
  </g>
</svg>