<?xml version="1.0" encoding="UTF-8"?>
<svg id="_图层_2" data-name="图层 2" xmlns="http://www.w3.org/2000/svg" viewBox="0 0 140.46 143.95">
  <defs>
    <style>
      .cls-1 {
        fill: none;
        stroke: #403789;
        stroke-miterlimit: 10;
        stroke-width: .75px;
      }

      .cls-2 {
        fill: #403789;
      }

      .cls-2, .cls-3 {
        stroke-width: 0px;
      }

      .cls-3 {
        fill: #9087c0;
      }
    </style>
  </defs>
  <g id="_1_" data-name="1&amp;apos;">
    <g>
      <path class="cls-3" d="m51.44,0h9.35v84.32h-9.35V0Z"/>
      <path class="cls-3" d="m26.17,0h14.43v84.33h-14.43V0Z"/>
      <path class="cls-2" d="m30.21,84.33h0s-26.2,0-26.2,0V17.62h26.2v6.8c1.84-2.31,4.62-4.22,8.35-5.74,3.73-1.52,8.62-2.29,14.69-2.29,8.73,0,14.99,1.79,18.76,5.37,3.77,3.58,5.66,9.41,5.66,17.48v45.08h-26.21v-39.77c0-2.06-.16-3.73-.48-5.01s-.9-2.24-1.72-2.9c-.83-.66-1.9-1.36-3.31-1.36-2.31,0-8.35,2.62-9.76,11.36"/>
      <path class="cls-3" d="m1.42,0h18.66v84.33H1.42V0Z"/>
      <path class="cls-3" d="m71.62,0h6.04v84.33h-6.04V0Z"/>
    </g>
    <g>
      <path class="cls-2" d="m1.42,106.92v-11.76h1.43v11.76h-1.43Z"/>
      <path class="cls-2" d="m6.98,99.73h.03c.15-.19.32-.37.5-.54.19-.17.39-.31.62-.44s.48-.22.75-.29c.27-.07.57-.11.89-.11.38,0,.74.05,1.07.16s.62.28.87.51.44.54.58.92c.14.38.21.84.21,1.39v5.59h-1.36v-5.37c0-.72-.14-1.24-.42-1.56-.28-.32-.68-.47-1.22-.47-.47,0-.92.13-1.36.39s-.82.62-1.13,1.08v5.93h-1.36v-8.35h1.05l.26,1.16Z"/>
      <path class="cls-2" d="m16.48,99.73h.03c.15-.19.32-.37.5-.54.19-.17.39-.31.62-.44s.48-.22.75-.29c.27-.07.57-.11.89-.11.38,0,.74.05,1.07.16s.62.28.87.51.44.54.58.92c.14.38.21.84.21,1.39v5.59h-1.36v-5.37c0-.72-.14-1.24-.42-1.56-.28-.32-.68-.47-1.22-.47-.47,0-.92.13-1.36.39s-.82.62-1.13,1.08v5.93h-1.36v-8.35h1.05l.26,1.16Z"/>
      <path class="cls-2" d="m32.09,102.75c0,.66-.09,1.25-.28,1.79s-.45,1-.8,1.38c-.34.38-.76.68-1.24.89s-1.03.32-1.63.32-1.18-.11-1.67-.32c-.49-.21-.91-.51-1.25-.89-.34-.38-.61-.85-.79-1.38s-.27-1.14-.27-1.79.09-1.26.28-1.8.45-1,.8-1.39c.34-.39.76-.69,1.25-.9.49-.21,1.04-.32,1.64-.32s1.17.11,1.66.32.91.51,1.25.9.6.85.78,1.39.27,1.14.27,1.8Zm-1.42,0c0-.52-.06-.97-.19-1.38-.13-.4-.3-.74-.53-1.02-.23-.28-.49-.49-.8-.63s-.65-.22-1.02-.22-.71.07-1.02.22-.58.35-.8.63-.4.62-.53,1.02-.19.86-.19,1.38.06.97.19,1.37.3.74.53,1.01.5.49.81.63c.31.14.65.22,1.02.22s.71-.07,1.01-.22c.31-.14.57-.35.8-.63.22-.28.4-.61.53-1.01.12-.4.19-.86.19-1.37Z"/>
      <path class="cls-2" d="m37.06,105.54c.2-.61.47-1.39.82-2.33l1.67-4.64h1.36l-3.16,8.35h-1.41l-3.16-8.35h1.36l1.66,4.64c.33.91.6,1.69.81,2.33h.04Z"/>
      <path class="cls-2" d="m47.45,106h-.04c-.11.14-.25.28-.42.42-.17.14-.37.26-.59.37-.22.11-.47.2-.73.26s-.54.1-.84.1c-.4,0-.78-.06-1.11-.18-.34-.12-.63-.29-.87-.53-.24-.23-.43-.51-.57-.85s-.2-.71-.2-1.13.08-.79.22-1.12c.15-.33.36-.61.63-.83s.59-.4.97-.53c.38-.12.8-.18,1.25-.18.43,0,.83.04,1.2.11s.7.16.98.26h.04v-.58c0-.23-.01-.43-.04-.61s-.08-.33-.15-.47c-.15-.28-.4-.51-.73-.7s-.79-.28-1.35-.28c-.42,0-.82.04-1.19.12-.37.08-.74.19-1.11.33v-1.14c.14-.07.31-.14.5-.2.19-.06.39-.11.6-.16s.43-.08.67-.1.47-.04.7-.04c.84,0,1.53.15,2.07.45.54.3.92.69,1.16,1.19.09.19.15.39.19.62s.06.47.06.74v5.57h-1.14l-.15-.92Zm-.07-2.74c-.25-.07-.55-.14-.89-.2s-.72-.1-1.14-.11c-.58,0-1.03.12-1.36.37-.33.25-.49.62-.49,1.13,0,.26.04.48.12.68.08.19.19.35.34.48.14.13.31.22.51.28.2.06.4.09.63.09.29,0,.56-.04.81-.13.25-.08.47-.19.67-.3s.36-.23.5-.35.24-.21.3-.27v-1.67Z"/>
      <path class="cls-2" d="m55.78,106.94c-.12.05-.3.09-.54.13s-.53.06-.86.07c-.44,0-.82-.05-1.14-.16-.32-.11-.59-.26-.8-.46-.21-.2-.37-.45-.48-.73s-.16-.61-.16-.96v-5.08h-1.61v-1.17h1.61v-2.29h1.36v2.29h2.5v1.17h-2.5v4.87c0,.19.03.37.08.54s.14.31.26.43c.12.12.27.21.46.28.19.07.41.1.68.1.18,0,.37-.01.58-.04.2-.03.39-.07.56-.11v1.14Z"/>
      <path class="cls-2" d="m57.68,96.63v-1.52h1.36v1.52h-1.36Zm.04,10.29v-8.35h1.36v8.35h-1.36Z"/>
      <path class="cls-2" d="m69.25,102.75c0,.66-.09,1.25-.28,1.79s-.45,1-.8,1.38c-.34.38-.76.68-1.24.89s-1.03.32-1.63.32-1.18-.11-1.67-.32c-.49-.21-.91-.51-1.25-.89-.34-.38-.61-.85-.79-1.38s-.27-1.14-.27-1.79.09-1.26.28-1.8.45-1,.8-1.39c.34-.39.76-.69,1.25-.9.49-.21,1.04-.32,1.64-.32s1.17.11,1.66.32.91.51,1.25.9.6.85.78,1.39.27,1.14.27,1.8Zm-1.42,0c0-.52-.06-.97-.19-1.38-.13-.4-.3-.74-.53-1.02-.23-.28-.49-.49-.8-.63s-.65-.22-1.02-.22-.71.07-1.02.22-.58.35-.8.63-.4.62-.53,1.02-.19.86-.19,1.38.06.97.19,1.37.3.74.53,1.01.5.49.81.63c.31.14.65.22,1.02.22s.71-.07,1.01-.22c.31-.14.57-.35.8-.63.22-.28.4-.61.53-1.01.12-.4.19-.86.19-1.37Z"/>
      <path class="cls-2" d="m72.72,99.73h.03c.15-.19.32-.37.5-.54.19-.17.39-.31.62-.44s.48-.22.75-.29c.27-.07.57-.11.89-.11.38,0,.74.05,1.07.16s.62.28.87.51.44.54.58.92c.14.38.21.84.21,1.39v5.59h-1.36v-5.37c0-.72-.14-1.24-.42-1.56-.28-.32-.68-.47-1.22-.47-.47,0-.92.13-1.36.39s-.82.62-1.13,1.08v5.93h-1.36v-8.35h1.05l.26,1.16Z"/>
      <path class="cls-2" d="m81.07,106.92v-11.76h1.43v11.76h-1.43Z"/>
      <path class="cls-2" d="m86.63,99.73h.03c.15-.19.32-.37.5-.54.19-.17.39-.31.62-.44s.48-.22.75-.29c.27-.07.57-.11.89-.11.38,0,.74.05,1.07.16s.62.28.87.51.44.54.58.92c.14.38.21.84.21,1.39v5.59h-1.36v-5.37c0-.72-.14-1.24-.42-1.56-.28-.32-.68-.47-1.22-.47-.47,0-.92.13-1.36.39s-.82.62-1.13,1.08v5.93h-1.36v-8.35h1.05l.26,1.16Z"/>
      <path class="cls-2" d="m95.78,100.79c0,.23.05.42.15.56.1.15.23.27.39.36s.35.17.57.22.44.11.67.16c.31.07.61.15.89.23.28.08.54.21.78.38s.43.4.58.69c.15.29.22.67.22,1.13,0,.42-.08.79-.25,1.12-.16.32-.4.6-.69.82-.3.22-.66.39-1.07.5-.42.11-.87.17-1.37.17-.3,0-.58-.02-.83-.05-.25-.03-.47-.07-.66-.12-.19-.05-.35-.1-.49-.15s-.25-.1-.33-.15v-1.14c.34.14.69.25,1.03.33.34.08.71.12,1.12.12.32,0,.61-.03.87-.09s.48-.15.67-.26c.19-.12.33-.26.43-.43.1-.17.15-.37.15-.6s-.05-.43-.14-.58c-.09-.15-.22-.28-.37-.38s-.33-.18-.54-.25c-.2-.06-.42-.12-.64-.18-.29-.06-.59-.14-.89-.23s-.58-.21-.82-.37-.45-.37-.6-.65-.23-.62-.23-1.05.08-.82.24-1.14.37-.59.64-.8.58-.37.94-.47.74-.16,1.13-.16c.46,0,.89.04,1.29.13.39.09.75.2,1.08.33v1.16c-.34-.13-.69-.24-1.04-.33s-.71-.13-1.08-.14c-.31,0-.58.03-.81.1-.22.06-.41.15-.55.27-.14.11-.25.25-.31.4s-.1.33-.1.51Z"/>
      <path class="cls-2" d="m102.13,96.63v-1.52h1.36v1.52h-1.36Zm.04,10.29v-8.35h1.36v8.35h-1.36Z"/>
      <path class="cls-2" d="m109.49,98.35c.36,0,.68.05.95.14s.5.2.69.33.35.26.46.39c.11.13.19.23.23.31h.04l.28-.95h1.03v8.84c0,.64-.11,1.21-.32,1.68-.21.48-.51.87-.89,1.19s-.84.55-1.38.71c-.54.15-1.13.23-1.78.23-.55,0-1.04-.05-1.48-.14-.43-.1-.77-.21-1.02-.35v-1.15c.2.08.39.15.58.21s.38.1.58.14.4.07.61.08.44.03.69.03c.98,0,1.73-.23,2.25-.69s.78-1.15.78-2.09v-1.12h-.03c-.3.33-.65.58-1.04.74-.39.17-.85.25-1.36.25-.23,0-.49-.03-.76-.08s-.54-.14-.81-.27-.53-.29-.77-.5c-.25-.21-.46-.47-.65-.78s-.34-.68-.45-1.11c-.11-.43-.17-.92-.17-1.49,0-.78.11-1.45.32-2.03s.49-1.04.83-1.42.74-.65,1.19-.84.91-.28,1.38-.28Zm-2.29,4.45c0,.66.08,1.19.24,1.61s.36.74.6.97c.24.23.51.39.8.47.29.09.56.13.82.13.42,0,.82-.08,1.19-.25s.69-.4.98-.69v-4.37c-.08-.11-.18-.23-.32-.36s-.29-.26-.47-.37-.38-.21-.61-.29-.48-.12-.75-.12c-.4,0-.76.08-1.07.24-.31.16-.57.38-.77.67s-.36.63-.47,1.03-.16.84-.16,1.33Z"/>
      <path class="cls-2" d="m117.26,99.71h.03c.15-.19.32-.37.51-.54s.4-.31.62-.43.47-.22.74-.29.55-.11.85-.11.63.04.95.13.61.24.88.45.49.52.66.91.25.88.25,1.49v5.59h-1.36v-5.37c0-.67-.13-1.18-.38-1.52-.26-.34-.67-.51-1.25-.51-.48,0-.94.13-1.37.39s-.81.62-1.12,1.08v5.93h-1.36v-12.73h1.36v5.52Z"/>
      <path class="cls-2" d="m129.79,106.94c-.12.05-.3.09-.54.13s-.53.06-.86.07c-.44,0-.82-.05-1.14-.16-.32-.11-.59-.26-.8-.46-.21-.2-.37-.45-.48-.73s-.16-.61-.16-.96v-5.08h-1.61v-1.17h1.61v-2.29h1.36v2.29h2.5v1.17h-2.5v4.87c0,.19.03.37.08.54s.14.31.26.43c.12.12.27.21.46.28.19.07.41.1.68.1.18,0,.37-.01.58-.04.2-.03.39-.07.56-.11v1.14Z"/>
      <path class="cls-2" d="m132.61,100.79c0,.23.05.42.15.56.1.15.23.27.39.36s.35.17.57.22.44.11.67.16c.31.07.61.15.89.23.28.08.54.21.78.38s.43.4.58.69c.15.29.22.67.22,1.13,0,.42-.08.79-.25,1.12-.16.32-.4.6-.69.82-.3.22-.66.39-1.07.5-.42.11-.87.17-1.37.17-.3,0-.58-.02-.83-.05-.25-.03-.47-.07-.66-.12-.19-.05-.35-.1-.49-.15s-.25-.1-.33-.15v-1.14c.34.14.69.25,1.03.33.34.08.71.12,1.12.12.32,0,.61-.03.87-.09s.48-.15.67-.26c.19-.12.33-.26.43-.43.1-.17.15-.37.15-.6s-.05-.43-.14-.58c-.09-.15-.22-.28-.37-.38s-.33-.18-.54-.25c-.2-.06-.42-.12-.64-.18-.29-.06-.59-.14-.89-.23-.3-.09-.58-.21-.82-.37s-.45-.37-.6-.65-.23-.62-.23-1.05.08-.82.24-1.14.37-.59.64-.8.58-.37.94-.47.74-.16,1.13-.16c.46,0,.89.04,1.29.13.39.09.75.2,1.08.33v1.16c-.34-.13-.69-.24-1.04-.33s-.71-.13-1.08-.14c-.31,0-.58.03-.81.1-.22.06-.41.15-.55.27-.14.11-.25.25-.31.4s-.1.33-.1.51Z"/>
    </g>
    <g>
      <path class="cls-2" d="m1.52,130.31l2.93-7.19h.76l2.93,7.19h-.95l-.86-2.16h-3l-.86,2.16h-.94Zm3.3-6.07c-.32.89-.63,1.71-.92,2.44l-.27.68h2.38l-.27-.68c-.29-.74-.6-1.56-.9-2.44h-.02Z"/>
      <path class="cls-2" d="m13.1,129.2c.26-.78.54-1.57.84-2.37l1.38-3.7h.88l-2.73,7.19h-.76l-2.73-7.19h.88l1.38,3.7c.3.8.58,1.59.84,2.37h.02Z"/>
      <path class="cls-2" d="m17.28,124.02v-.93h.83v.93h-.83Zm.02,6.29v-5.1h.83v5.1h-.83Z"/>
      <path class="cls-2" d="m20.4,126.57c0,.14.03.26.09.34.06.09.14.16.24.22.1.05.21.1.35.14.13.04.27.07.41.1.19.04.38.09.55.14.17.05.33.13.48.23s.26.24.35.42c.09.18.13.41.13.69,0,.26-.05.49-.15.69-.1.2-.24.37-.42.5-.18.13-.4.24-.66.3-.25.07-.53.11-.84.11-.19,0-.36,0-.51-.03s-.29-.04-.4-.08c-.12-.03-.22-.06-.3-.09-.08-.03-.15-.06-.21-.09v-.7c.21.09.42.15.63.2.21.05.44.08.69.08.2,0,.37-.02.53-.05.16-.04.29-.09.41-.16.11-.07.2-.16.26-.26s.09-.23.09-.37-.03-.26-.08-.35c-.06-.09-.13-.17-.23-.23-.09-.06-.21-.11-.33-.15-.12-.04-.25-.07-.39-.11-.18-.04-.36-.09-.55-.14-.18-.05-.35-.13-.5-.23-.15-.1-.27-.23-.37-.39-.09-.17-.14-.38-.14-.64s.05-.5.15-.7.23-.36.39-.49c.17-.13.36-.23.58-.29s.45-.1.69-.1c.28,0,.55.03.79.08.24.05.46.12.66.21v.71c-.21-.08-.42-.15-.64-.2-.21-.05-.44-.08-.66-.08-.19,0-.36.02-.49.06-.14.04-.25.09-.34.16-.09.07-.15.15-.19.25-.04.09-.06.2-.06.31Z"/>
      <path class="cls-2" d="m26.27,130.45c-.26,0-.5-.03-.71-.09s-.4-.14-.56-.24-.29-.23-.41-.37c-.11-.14-.2-.3-.26-.47-.05-.13-.09-.27-.11-.43-.02-.15-.03-.32-.03-.5v-3.13h.83v3.12c0,.28.04.52.11.71.09.21.22.38.42.51s.44.19.73.19c.32,0,.57-.07.76-.21.19-.13.33-.32.41-.55.06-.18.09-.39.09-.65v-3.12h.83v3.14c0,.17,0,.33-.03.48s-.05.29-.09.41c-.06.18-.15.34-.27.49-.11.15-.25.28-.42.38s-.36.19-.57.25c-.22.06-.46.09-.73.09Z"/>
      <path class="cls-2" d="m32.93,129.75h-.02c-.07.09-.15.17-.26.26s-.22.16-.36.23c-.14.07-.28.12-.45.16s-.33.06-.52.06c-.25,0-.47-.04-.68-.11-.21-.07-.38-.18-.53-.32-.15-.14-.26-.31-.35-.52-.08-.2-.12-.44-.12-.69s.05-.48.14-.68c.09-.2.22-.37.38-.51.17-.14.36-.25.59-.32.23-.08.49-.11.77-.11.26,0,.51.03.74.07s.43.1.6.16h.02v-.35c0-.14,0-.26-.03-.37-.02-.11-.05-.2-.09-.29-.09-.17-.24-.31-.45-.43-.21-.11-.48-.17-.83-.17-.26,0-.5.03-.73.07-.23.05-.45.12-.68.2v-.7c.09-.04.19-.08.3-.12s.24-.07.37-.1c.13-.03.26-.05.41-.06s.29-.02.43-.02c.52,0,.94.09,1.26.27.33.18.56.42.71.72.05.12.09.24.12.38.02.14.04.29.04.46v3.4h-.7l-.09-.56Zm-.04-1.68c-.15-.04-.33-.08-.55-.12-.21-.04-.44-.06-.69-.06-.35,0-.63.08-.83.23s-.3.38-.3.69c0,.16.02.3.07.41.05.12.12.22.21.29.09.08.19.13.31.17.12.04.25.06.38.06.18,0,.34-.03.5-.08.15-.05.29-.11.41-.19.12-.07.22-.14.3-.21.08-.07.15-.13.18-.17v-1.02Z"/>
      <path class="cls-2" d="m35.38,130.31v-7.78h.83v7.78h-.83Z"/>
      <path class="cls-2" d="m38.98,130.31l2.93-7.19h.76l2.93,7.19h-.95l-.86-2.16h-3l-.86,2.16h-.94Zm3.3-6.07c-.32.89-.63,1.71-.92,2.44l-.27.68h2.38l-.27-.68c-.29-.74-.6-1.56-.9-2.44h-.02Z"/>
      <path class="cls-2" d="m47.39,125.92h.02c.09-.12.2-.23.31-.33.11-.1.24-.19.38-.27.14-.08.29-.14.46-.18.17-.04.35-.06.54-.06.23,0,.45.03.66.1s.38.17.53.31.27.33.36.56c.09.23.13.52.13.85v3.42h-.83v-3.28c0-.44-.08-.76-.25-.95s-.42-.29-.74-.29c-.29,0-.56.08-.83.24-.27.16-.5.38-.69.66v3.62h-.83v-5.1h.64l.16.71Z"/>
      <path class="cls-2" d="m55.37,129.75h-.02c-.07.09-.15.17-.26.26s-.22.16-.36.23c-.14.07-.28.12-.45.16s-.33.06-.52.06c-.25,0-.47-.04-.68-.11-.21-.07-.38-.18-.53-.32-.15-.14-.26-.31-.35-.52-.08-.2-.12-.44-.12-.69s.05-.48.14-.68c.09-.2.22-.37.38-.51.17-.14.36-.25.59-.32.23-.08.49-.11.77-.11.26,0,.51.03.74.07s.43.1.6.16h.02v-.35c0-.14,0-.26-.03-.37-.02-.11-.05-.2-.09-.29-.09-.17-.24-.31-.45-.43-.21-.11-.48-.17-.83-.17-.26,0-.5.03-.73.07-.23.05-.45.12-.68.2v-.7c.09-.04.19-.08.3-.12s.24-.07.37-.1c.13-.03.26-.05.41-.06s.29-.02.43-.02c.52,0,.94.09,1.26.27.33.18.56.42.71.72.05.12.09.24.12.38.02.14.04.29.04.46v3.4h-.7l-.09-.56Zm-.04-1.68c-.15-.04-.33-.08-.55-.12-.21-.04-.44-.06-.69-.06-.35,0-.63.08-.83.23s-.3.38-.3.69c0,.16.02.3.07.41.05.12.12.22.21.29.09.08.19.13.31.17.12.04.25.06.38.06.18,0,.34-.03.5-.08.15-.05.29-.11.41-.19.12-.07.22-.14.3-.21.08-.07.15-.13.18-.17v-1.02Z"/>
      <path class="cls-2" d="m57.83,130.31v-7.78h.83v7.78h-.83Z"/>
      <path class="cls-2" d="m59.68,125.21h.83l1.58,4h.03l1.63-4h.83l-3.16,7.6h-.83l1.09-2.6-2.01-5Z"/>
      <path class="cls-2" d="m68.29,130.33c-.07.03-.18.05-.33.08s-.32.04-.53.04c-.27,0-.5-.03-.7-.1s-.36-.16-.49-.29c-.13-.12-.23-.27-.29-.45s-.1-.37-.1-.59v-3.11h-.98v-.71h.98v-1.4h.83v1.4h1.53v.71h-1.53v2.98c0,.12.02.23.05.33.03.1.09.19.16.26.07.07.17.13.28.17.11.04.25.06.41.06.11,0,.23,0,.35-.03.12-.02.24-.04.34-.07v.7Z"/>
      <path class="cls-2" d="m69.45,124.02v-.93h.83v.93h-.83Zm.02,6.29v-5.1h.83v5.1h-.83Z"/>
      <path class="cls-2" d="m74.16,125.08c.25,0,.48.03.71.08.23.05.42.12.58.22v.69c-.23-.09-.43-.15-.62-.19s-.38-.06-.58-.06c-.21,0-.41.03-.62.1-.2.07-.39.18-.55.34-.16.16-.29.36-.39.62s-.15.57-.15.95c0,.28.04.53.11.76s.18.43.33.6c.14.17.33.3.54.4.22.09.47.14.76.14.21,0,.42-.02.63-.07s.42-.11.62-.19v.69c-.06.04-.14.07-.24.11-.1.04-.21.07-.33.1-.12.03-.24.05-.38.06-.13.02-.26.02-.4.02-.34,0-.67-.05-.97-.16-.31-.1-.57-.26-.8-.48-.23-.21-.41-.49-.54-.82-.13-.33-.2-.72-.2-1.17,0-.34.04-.64.11-.91.07-.27.17-.5.29-.71.12-.2.26-.38.43-.52.16-.14.34-.26.52-.35.18-.09.38-.16.57-.2.2-.04.39-.06.58-.06Z"/>
      <path class="cls-2" d="m77.39,126.57c0,.14.03.26.09.34.06.09.14.16.24.22.1.05.21.1.35.14.13.04.27.07.41.1.19.04.38.09.55.14.17.05.33.13.48.23s.26.24.35.42c.09.18.13.41.13.69,0,.26-.05.49-.15.69-.1.2-.24.37-.42.5-.18.13-.4.24-.66.3-.25.07-.53.11-.84.11-.19,0-.36,0-.51-.03s-.29-.04-.4-.08c-.12-.03-.22-.06-.3-.09-.08-.03-.15-.06-.21-.09v-.7c.21.09.42.15.63.2.21.05.44.08.69.08.2,0,.37-.02.53-.05.16-.04.29-.09.41-.16.11-.07.2-.16.26-.26s.09-.23.09-.37-.03-.26-.08-.35c-.06-.09-.13-.17-.23-.23-.09-.06-.21-.11-.33-.15-.12-.04-.25-.07-.39-.11-.18-.04-.36-.09-.55-.14-.18-.05-.35-.13-.5-.23-.15-.1-.27-.23-.37-.39-.09-.17-.14-.38-.14-.64s.05-.5.15-.7.23-.36.39-.49c.17-.13.36-.23.58-.29s.45-.1.69-.1c.28,0,.55.03.79.08.24.05.46.12.66.21v.71c-.21-.08-.42-.15-.64-.2-.21-.05-.44-.08-.66-.08-.19,0-.36.02-.49.06-.14.04-.25.09-.34.16-.09.07-.15.15-.19.25-.04.09-.06.2-.06.31Z"/>
      <path class="cls-2" d="m82.34,130.31l2.93-7.19h.76l2.93,7.19h-.95l-.86-2.16h-3l-.86,2.16h-.94Zm3.3-6.07c-.32.89-.63,1.71-.92,2.44l-.27.68h2.38l-.27-.68c-.29-.74-.6-1.56-.9-2.44h-.02Z"/>
      <path class="cls-2" d="m94.47,127.7c0,.35-.04.67-.11.94-.07.28-.16.51-.28.72-.12.21-.25.38-.41.51-.15.14-.31.25-.48.33-.17.08-.33.14-.5.18s-.33.06-.48.06c-.31,0-.58-.05-.81-.15-.23-.1-.44-.25-.62-.46h-.02v2.97h-.82v-7.6h.63l.18.58h.02c.05-.07.11-.14.18-.21.07-.07.17-.14.29-.22.12-.08.27-.14.45-.2s.36-.09.57-.09c.29,0,.56.05.83.14.27.1.5.25.71.46s.37.48.49.81c.12.33.19.73.19,1.21Zm-.87,0c0-.3-.03-.56-.09-.8-.06-.24-.16-.44-.28-.6s-.28-.29-.46-.38c-.18-.09-.4-.13-.64-.13-.17,0-.33.02-.47.07-.14.05-.27.11-.39.18-.12.07-.21.15-.3.23-.08.08-.15.16-.2.22v2.67c.18.18.38.32.6.42.22.1.47.16.73.16.16,0,.33-.03.5-.09.18-.06.34-.17.49-.32s.27-.36.37-.62c.1-.26.15-.6.15-1Z"/>
      <path class="cls-2" d="m100.31,127.7c0,.35-.04.67-.11.94-.07.28-.16.51-.28.72-.12.21-.25.38-.41.51-.15.14-.31.25-.48.33-.17.08-.33.14-.5.18s-.33.06-.48.06c-.31,0-.58-.05-.81-.15-.23-.1-.44-.25-.62-.46h-.02v2.97h-.82v-7.6h.63l.18.58h.02c.05-.07.11-.14.18-.21.07-.07.17-.14.29-.22.12-.08.27-.14.45-.2s.36-.09.57-.09c.29,0,.56.05.83.14.27.1.5.25.71.46s.37.48.49.81c.12.33.19.73.19,1.21Zm-.87,0c0-.3-.03-.56-.09-.8-.06-.24-.16-.44-.28-.6s-.28-.29-.46-.38c-.18-.09-.4-.13-.64-.13-.17,0-.33.02-.47.07-.14.05-.27.11-.39.18-.12.07-.21.15-.3.23-.08.08-.15.16-.2.22v2.67c.18.18.38.32.6.42.22.1.47.16.73.16.16,0,.33-.03.5-.09.18-.06.34-.17.49-.32s.27-.36.37-.62c.1-.26.15-.6.15-1Z"/>
      <path class="cls-2" d="m104.42,125.89h-.06c-.2,0-.39.02-.58.05-.19.04-.37.09-.53.16-.17.07-.32.16-.45.27-.13.11-.25.24-.33.38v3.55h-.83v-5.1h.64l.16.81h.02c.08-.13.18-.26.3-.37.12-.11.25-.21.41-.3s.32-.15.49-.2c.18-.05.37-.07.56-.07.04,0,.07,0,.11,0,.04,0,.07,0,.1,0v.8Z"/>
      <path class="cls-2" d="m109.85,127.77c0,.4-.06.77-.17,1.1-.12.33-.28.61-.49.85-.21.23-.46.42-.76.54-.3.13-.63.19-1,.19s-.72-.06-1.02-.19-.55-.31-.76-.54c-.21-.23-.37-.52-.48-.85-.11-.33-.17-.7-.17-1.1s.06-.77.17-1.1c.12-.33.28-.61.49-.85.21-.24.46-.42.76-.55s.63-.19,1-.19.71.06,1.01.19.56.31.76.55c.21.24.37.52.48.85s.17.7.17,1.1Zm-.87,0c0-.32-.04-.6-.12-.84-.08-.24-.18-.45-.32-.62s-.3-.3-.49-.39-.4-.13-.62-.13-.43.04-.62.13-.35.22-.49.39-.25.38-.32.62c-.08.25-.12.53-.12.84s.04.59.12.83c.08.25.19.45.32.62.14.17.3.3.49.38.19.09.4.13.62.13s.43-.04.62-.13c.19-.09.35-.22.49-.38s.25-.38.32-.62c.08-.24.12-.52.12-.83Z"/>
      <path class="cls-2" d="m114.16,129.75h-.02c-.07.09-.15.17-.26.26s-.22.16-.36.23c-.14.07-.28.12-.45.16s-.33.06-.52.06c-.25,0-.47-.04-.68-.11-.21-.07-.38-.18-.53-.32-.15-.14-.26-.31-.35-.52-.08-.2-.12-.44-.12-.69s.05-.48.14-.68c.09-.2.22-.37.38-.51.17-.14.36-.25.59-.32.23-.08.49-.11.77-.11.26,0,.51.03.74.07s.43.1.6.16h.02v-.35c0-.14,0-.26-.03-.37-.02-.11-.05-.2-.09-.29-.09-.17-.24-.31-.45-.43-.21-.11-.48-.17-.83-.17-.26,0-.5.03-.73.07-.23.05-.45.12-.68.2v-.7c.09-.04.19-.08.3-.12s.24-.07.37-.1c.13-.03.26-.05.41-.06s.29-.02.43-.02c.52,0,.94.09,1.26.27.33.18.56.42.71.72.05.12.09.24.12.38.02.14.04.29.04.46v3.4h-.7l-.09-.56Zm-.04-1.68c-.15-.04-.33-.08-.55-.12-.21-.04-.44-.06-.69-.06-.35,0-.63.08-.83.23s-.3.38-.3.69c0,.16.02.3.07.41.05.12.12.22.21.29.09.08.19.13.31.17.12.04.25.06.38.06.18,0,.34-.03.5-.08.15-.05.29-.11.41-.19.12-.07.22-.14.3-.21.08-.07.15-.13.18-.17v-1.02Z"/>
      <path class="cls-2" d="m118.75,125.08c.25,0,.48.03.71.08.23.05.42.12.58.22v.69c-.23-.09-.43-.15-.62-.19s-.38-.06-.58-.06c-.21,0-.41.03-.62.1-.2.07-.39.18-.55.34-.16.16-.29.36-.39.62s-.15.57-.15.95c0,.28.04.53.11.76s.18.43.33.6c.14.17.33.3.54.4.22.09.47.14.76.14.21,0,.42-.02.63-.07s.42-.11.62-.19v.69c-.06.04-.14.07-.24.11-.1.04-.21.07-.33.1-.12.03-.24.05-.38.06-.13.02-.26.02-.4.02-.34,0-.67-.05-.97-.16-.31-.1-.57-.26-.8-.48-.23-.21-.41-.49-.54-.82-.13-.33-.2-.72-.2-1.17,0-.34.04-.64.11-.91.07-.27.17-.5.29-.71.12-.2.26-.38.43-.52.16-.14.34-.26.52-.35.18-.09.38-.16.57-.2.2-.04.39-.06.58-.06Z"/>
      <path class="cls-2" d="m122.27,125.91h.02c.09-.12.2-.23.31-.33s.24-.19.38-.26c.14-.07.29-.13.45-.17.16-.04.33-.06.52-.06s.39.03.58.08c.19.05.37.14.54.28.17.13.3.32.4.55.1.24.16.54.16.91v3.42h-.83v-3.28c0-.41-.08-.72-.23-.93-.16-.21-.41-.31-.77-.31-.29,0-.57.08-.84.24-.26.16-.49.38-.69.66v3.62h-.83v-7.78h.83v3.37Z"/>
      <path class="cls-2" d="m5.1,134.19c-.11-.02-.23-.04-.36-.05-.13-.01-.24-.02-.33-.02-.19,0-.35.02-.5.07-.15.05-.27.12-.37.22-.1.1-.18.24-.23.4-.05.17-.08.37-.08.6v.79h1.52v.71h-1.52v4.39h-.83v-4.39h-.9v-.71h.9v-.78c0-.37.05-.68.15-.93s.23-.46.41-.62c.17-.16.37-.28.61-.36.23-.08.48-.12.75-.12.17,0,.33,0,.47.03.15.02.25.04.32.06v.71Z"/>
      <path class="cls-2" d="m10.18,138.77c0,.4-.06.77-.17,1.1-.12.33-.28.61-.49.85-.21.23-.46.42-.76.54-.3.13-.63.19-1,.19s-.72-.06-1.02-.19-.55-.31-.76-.54c-.21-.23-.37-.52-.48-.85-.11-.33-.17-.7-.17-1.1s.06-.77.17-1.1c.12-.33.28-.61.49-.85.21-.24.46-.42.76-.55s.63-.19,1-.19.71.06,1.01.19.56.31.76.55c.21.24.37.52.48.85s.17.7.17,1.1Zm-.87,0c0-.32-.04-.6-.12-.84-.08-.24-.18-.45-.32-.62s-.3-.3-.49-.39-.4-.13-.62-.13-.43.04-.62.13-.35.22-.49.39-.25.38-.32.62c-.08.25-.12.53-.12.84s.04.59.12.83c.08.25.19.45.32.62.14.17.3.3.49.38.19.09.4.13.62.13s.43-.04.62-.13c.19-.09.35-.22.49-.38s.25-.38.32-.62c.08-.24.12-.52.12-.83Z"/>
      <path class="cls-2" d="m14.3,136.89h-.06c-.2,0-.39.02-.58.05-.19.04-.37.09-.53.16-.17.07-.32.16-.45.27-.13.11-.25.24-.33.38v3.55h-.83v-5.1h.64l.16.81h.02c.08-.13.18-.26.3-.37.12-.11.25-.21.41-.3s.32-.15.49-.2c.18-.05.37-.07.56-.07.04,0,.07,0,.11,0,.04,0,.07,0,.1,0v.8Z"/>
      <path class="cls-2" d="m16.28,141.31l2.93-7.19h.76l2.93,7.19h-.95l-.86-2.16h-3l-.86,2.16h-.94Zm3.3-6.07c-.32.89-.63,1.71-.92,2.44l-.27.68h2.38l-.27-.68c-.29-.74-.6-1.56-.9-2.44h-.02Z"/>
      <path class="cls-2" d="m24.69,136.92h.02c.09-.12.2-.23.31-.33.11-.1.24-.19.38-.27.14-.08.29-.14.46-.18.17-.04.35-.06.54-.06.23,0,.45.03.66.1s.38.17.53.31.27.33.36.56c.09.23.13.52.13.85v3.42h-.83v-3.28c0-.44-.08-.76-.25-.95s-.42-.29-.74-.29c-.29,0-.56.08-.83.24-.27.16-.5.38-.69.66v3.62h-.83v-5.1h.64l.16.71Z"/>
      <path class="cls-2" d="m32.68,140.75h-.02c-.07.09-.15.17-.26.26s-.22.16-.36.23c-.14.07-.28.12-.45.16s-.33.06-.52.06c-.25,0-.47-.04-.68-.11-.21-.07-.38-.18-.53-.32-.15-.14-.26-.31-.35-.52-.08-.2-.12-.44-.12-.69s.05-.48.14-.68c.09-.2.22-.37.38-.51.17-.14.36-.25.59-.32.23-.08.49-.11.77-.11.26,0,.51.03.74.07s.43.1.6.16h.02v-.35c0-.14,0-.26-.03-.37-.02-.11-.05-.2-.09-.29-.09-.17-.24-.31-.45-.43-.21-.11-.48-.17-.83-.17-.26,0-.5.03-.73.07-.23.05-.45.12-.68.2v-.7c.09-.04.19-.08.3-.12s.24-.07.37-.1c.13-.03.26-.05.41-.06s.29-.02.43-.02c.52,0,.94.09,1.26.27.33.18.56.42.71.72.05.12.09.24.12.38.02.14.04.29.04.46v3.4h-.7l-.09-.56Zm-.04-1.68c-.15-.04-.33-.08-.55-.12-.21-.04-.44-.06-.69-.06-.35,0-.63.08-.83.23s-.3.38-.3.69c0,.16.02.3.07.41.05.12.12.22.21.29.09.08.19.13.31.17.12.04.25.06.38.06.18,0,.34-.03.5-.08.15-.05.29-.11.41-.19.12-.07.22-.14.3-.21.08-.07.15-.13.18-.17v-1.02Z"/>
      <path class="cls-2" d="m35.13,141.31v-7.78h.83v7.78h-.83Z"/>
      <path class="cls-2" d="m36.98,136.21h.83l1.58,4h.03l1.63-4h.83l-3.16,7.6h-.83l1.09-2.6-2.01-5Z"/>
      <path class="cls-2" d="m45.36,136.95v-.02h-2.8v-.71h3.86v.53l-2.84,3.84v.02h3.02v.71h-4.14v-.45l2.89-3.92Z"/>
      <path class="cls-2" d="m47.82,135.02v-.93h.83v.93h-.83Zm.02,6.29v-5.1h.83v5.1h-.83Z"/>
      <path class="cls-2" d="m51.15,136.92h.02c.09-.12.2-.23.31-.33.11-.1.24-.19.38-.27.14-.08.29-.14.46-.18.17-.04.35-.06.54-.06.23,0,.45.03.66.1s.38.17.53.31.27.33.36.56c.09.23.13.52.13.85v3.42h-.83v-3.28c0-.44-.08-.76-.25-.95s-.42-.29-.74-.29c-.29,0-.56.08-.83.24-.27.16-.5.38-.69.66v3.62h-.83v-5.1h.64l.16.71Z"/>
      <path class="cls-2" d="m58.12,136.08c.22,0,.42.03.58.09.17.05.31.12.42.2.12.08.21.16.28.24.07.08.12.14.14.19h.02l.17-.58h.63v5.4c0,.39-.06.74-.19,1.03-.13.29-.31.53-.54.73s-.51.34-.84.43c-.33.09-.69.14-1.09.14-.34,0-.64-.03-.9-.09-.27-.06-.47-.13-.62-.21v-.71c.12.05.24.09.35.13.12.04.23.06.36.09.12.02.25.04.37.05.13.01.27.02.42.02.6,0,1.06-.14,1.38-.42.32-.28.48-.71.48-1.28v-.68h-.02c-.18.2-.39.35-.64.46-.24.1-.52.15-.83.15-.14,0-.3-.02-.46-.05-.17-.03-.33-.09-.49-.16-.17-.08-.32-.18-.47-.3s-.28-.29-.4-.48-.21-.42-.28-.68c-.07-.26-.11-.56-.11-.91,0-.48.06-.89.19-1.24.13-.35.3-.64.51-.87.21-.23.45-.4.73-.51.27-.11.55-.17.84-.17Zm-1.4,2.72c0,.4.05.73.14.98s.22.45.37.59c.15.14.31.24.49.29.18.05.34.08.5.08.26,0,.5-.05.72-.16.23-.1.42-.24.6-.42v-2.67c-.05-.06-.11-.14-.19-.22-.08-.08-.18-.16-.29-.23-.11-.07-.23-.13-.37-.18-.14-.05-.29-.07-.46-.07-.25,0-.46.05-.65.15-.19.1-.35.24-.47.41s-.22.38-.29.63c-.06.24-.1.52-.1.81Z"/>
      <path class="cls-2" d="m64.29,141.31v-7.19h.88v7.19h-.88Z"/>
      <path class="cls-2" d="m67.69,136.92h.02c.09-.12.2-.23.31-.33.11-.1.24-.19.38-.27.14-.08.29-.14.46-.18.17-.04.35-.06.54-.06.23,0,.45.03.66.1s.38.17.53.31.27.33.36.56c.09.23.13.52.13.85v3.42h-.83v-3.28c0-.44-.08-.76-.25-.95s-.42-.29-.74-.29c-.29,0-.56.08-.83.24-.27.16-.5.38-.69.66v3.62h-.83v-5.1h.64l.16.71Z"/>
      <path class="cls-2" d="m73.49,136.92h.02c.09-.12.2-.23.31-.33.11-.1.24-.19.38-.27.14-.08.29-.14.46-.18.17-.04.35-.06.54-.06.23,0,.45.03.66.1s.38.17.53.31.27.33.36.56c.09.23.13.52.13.85v3.42h-.83v-3.28c0-.44-.08-.76-.25-.95s-.42-.29-.74-.29c-.29,0-.56.08-.83.24-.27.16-.5.38-.69.66v3.62h-.83v-5.1h.64l.16.71Z"/>
      <path class="cls-2" d="m83.03,138.77c0,.4-.06.77-.17,1.1-.12.33-.28.61-.49.85-.21.23-.46.42-.76.54-.3.13-.63.19-1,.19s-.72-.06-1.02-.19-.55-.31-.76-.54c-.21-.23-.37-.52-.48-.85-.11-.33-.17-.7-.17-1.1s.06-.77.17-1.1c.12-.33.28-.61.49-.85.21-.24.46-.42.76-.55s.63-.19,1-.19.71.06,1.01.19.56.31.76.55c.21.24.37.52.48.85s.17.7.17,1.1Zm-.87,0c0-.32-.04-.6-.12-.84-.08-.24-.18-.45-.32-.62s-.3-.3-.49-.39-.4-.13-.62-.13-.43.04-.62.13-.35.22-.49.39-.25.38-.32.62c-.08.25-.12.53-.12.84s.04.59.12.83c.08.25.19.45.32.62.14.17.3.3.49.38.19.09.4.13.62.13s.43-.04.62-.13c.19-.09.35-.22.49-.38s.25-.38.32-.62c.08-.24.12-.52.12-.83Z"/>
      <path class="cls-2" d="m86.07,140.47c.12-.37.29-.85.5-1.42l1.02-2.84h.83l-1.93,5.1h-.86l-1.93-5.1h.83l1.01,2.84c.2.56.37,1.03.5,1.42h.02Z"/>
      <path class="cls-2" d="m92.42,140.75h-.02c-.07.09-.15.17-.26.26s-.22.16-.36.23c-.14.07-.28.12-.45.16s-.33.06-.52.06c-.25,0-.47-.04-.68-.11-.21-.07-.38-.18-.53-.32-.15-.14-.26-.31-.35-.52-.08-.2-.12-.44-.12-.69s.05-.48.14-.68c.09-.2.22-.37.38-.51.17-.14.36-.25.59-.32.23-.08.49-.11.77-.11.26,0,.51.03.74.07s.43.1.6.16h.02v-.35c0-.14,0-.26-.03-.37-.02-.11-.05-.2-.09-.29-.09-.17-.24-.31-.45-.43-.21-.11-.48-.17-.83-.17-.26,0-.5.03-.73.07-.23.05-.45.12-.68.2v-.7c.09-.04.19-.08.3-.12s.24-.07.37-.1c.13-.03.26-.05.41-.06s.29-.02.43-.02c.52,0,.94.09,1.26.27.33.18.56.42.71.72.05.12.09.24.12.38.02.14.04.29.04.46v3.4h-.7l-.09-.56Zm-.04-1.68c-.15-.04-.33-.08-.55-.12-.21-.04-.44-.06-.69-.06-.35,0-.63.08-.83.23s-.3.38-.3.69c0,.16.02.3.07.41.05.12.12.22.21.29.09.08.19.13.31.17.12.04.25.06.38.06.18,0,.34-.03.5-.08.15-.05.29-.11.41-.19.12-.07.22-.14.3-.21.08-.07.15-.13.18-.17v-1.02Z"/>
      <path class="cls-2" d="m97.51,141.33c-.07.03-.18.05-.33.08s-.32.04-.53.04c-.27,0-.5-.03-.7-.1s-.36-.16-.49-.29c-.13-.12-.23-.27-.29-.45s-.1-.37-.1-.59v-3.11h-.98v-.71h.98v-1.4h.83v1.4h1.53v.71h-1.53v2.98c0,.12.02.23.05.33.03.1.09.19.16.26.07.07.17.13.28.17.11.04.25.06.41.06.11,0,.23,0,.35-.03.12-.02.24-.04.34-.07v.7Z"/>
      <path class="cls-2" d="m98.67,135.02v-.93h.83v.93h-.83Zm.02,6.29v-5.1h.83v5.1h-.83Z"/>
      <path class="cls-2" d="m105.74,138.77c0,.4-.06.77-.17,1.1-.12.33-.28.61-.49.85-.21.23-.46.42-.76.54-.3.13-.63.19-1,.19s-.72-.06-1.02-.19-.55-.31-.76-.54c-.21-.23-.37-.52-.48-.85-.11-.33-.17-.7-.17-1.1s.06-.77.17-1.1c.12-.33.28-.61.49-.85.21-.24.46-.42.76-.55s.63-.19,1-.19.71.06,1.01.19.56.31.76.55c.21.24.37.52.48.85s.17.7.17,1.1Zm-.87,0c0-.32-.04-.6-.12-.84-.08-.24-.18-.45-.32-.62s-.3-.3-.49-.39-.4-.13-.62-.13-.43.04-.62.13-.35.22-.49.39-.25.38-.32.62c-.08.25-.12.53-.12.84s.04.59.12.83c.08.25.19.45.32.62.14.17.3.3.49.38.19.09.4.13.62.13s.43-.04.62-.13c.19-.09.35-.22.49-.38s.25-.38.32-.62c.08-.24.12-.52.12-.83Z"/>
      <path class="cls-2" d="m107.86,136.92h.02c.09-.12.2-.23.31-.33.11-.1.24-.19.38-.27.14-.08.29-.14.46-.18.17-.04.35-.06.54-.06.23,0,.45.03.66.1s.38.17.53.31.27.33.36.56c.09.23.13.52.13.85v3.42h-.83v-3.28c0-.44-.08-.76-.25-.95s-.42-.29-.74-.29c-.29,0-.56.08-.83.24-.27.16-.5.38-.69.66v3.62h-.83v-5.1h.64l.16.71Z"/>
    </g>
    <line class="cls-1" y1="116.59" x2="140.46" y2="116.59"/>
  </g>
</svg>